<?xml version="1.0" standalone="no"?>
<!DOCTYPE svg PUBLIC "-//W3C//DTD SVG 20010904//EN"
 "http://www.w3.org/TR/2001/REC-SVG-20010904/DTD/svg10.dtd">
<svg version="1.0" xmlns="http://www.w3.org/2000/svg"
 width="626.000000pt" height="626.000000pt" viewBox="0 0 626.000000 626.000000"
 preserveAspectRatio="xMidYMid meet">

<g transform="translate(0.000000,626.000000) scale(0.100000,-0.100000)"
fill="#000000" stroke="none">
<path d="M3457 5175 c-716 -116 -1275 -645 -1425 -1345 -56 -262 -52 -510 14
-792 l26 -107 36 -7 c20 -4 44 -10 54 -15 13 -7 23 2 48 42 40 61 98 110 176
146 52 25 70 28 160 28 l102 0 27 63 c40 91 110 164 203 209 70 35 84 38 169
40 l94 2 42 63 c50 74 121 131 196 156 l54 18 28 110 c62 248 172 439 358 624
239 238 535 369 874 387 l127 6 -67 50 c-209 152 -435 252 -697 308 -124 27
-471 35 -599 14z"/>
<path d="M3924 3916 c-135 -50 -227 -149 -277 -297 -5 -15 -11 -15 -64 -1 -70
18 -156 7 -229 -29 -59 -30 -138 -116 -157 -171 -11 -33 -19 -42 -33 -39 -10
1 -57 3 -104 4 -72 1 -94 -3 -142 -25 -32 -15 -73 -39 -92 -53 -49 -37 -102
-120 -122 -190 -9 -33 -17 -61 -19 -63 -1 -1 -30 5 -64 14 -150 38 -320 -42
-386 -182 -14 -30 -28 -54 -31 -54 -2 0 -15 7 -28 15 -35 23 -118 30 -173 14
-60 -16 -124 -78 -141 -136 -11 -38 -17 -44 -55 -54 -85 -23 -127 -77 -127
-164 0 -49 10 -77 42 -111 14 -16 20 -39 22 -85 9 -181 181 -308 347 -256 l45
14 18 -44 c41 -99 140 -188 243 -219 56 -17 177 -20 216 -5 25 10 27 8 47 -37
41 -92 108 -136 206 -136 48 0 71 6 107 27 25 15 52 36 60 48 13 18 15 12 19
-60 8 -130 66 -222 180 -283 37 -20 58 -23 143 -23 94 0 104 2 155 31 l55 31
1 -66 c2 -152 112 -260 265 -261 111 0 196 56 242 160 11 25 21 46 22 48 1 1
25 -13 53 -32 64 -42 135 -60 221 -54 171 12 305 153 306 319 l0 67 52 11 c59
14 133 72 153 120 l12 30 42 -21 c83 -44 210 -24 273 44 35 37 63 109 63 163
l0 51 34 -4 c19 -2 52 1 73 8 67 22 99 53 140 138 0 2 18 -5 40 -16 126 -65
281 -13 339 112 31 67 33 162 3 223 -25 52 -88 108 -142 126 -37 12 -40 16
-43 55 -8 87 -53 155 -129 195 -41 21 -119 28 -165 15 -24 -7 -27 -3 -43 42
-40 113 -136 188 -252 198 -60 4 -66 7 -84 37 -35 59 -116 105 -187 105 -28 0
-35 5 -54 44 -25 53 -106 131 -158 153 -20 8 -57 18 -82 22 l-45 6 -6 75 c-7
88 -15 121 -42 175 -56 113 -141 191 -254 232 -89 32 -222 32 -309 -1z"/>
<path d="M1703 3665 c-120 -37 -208 -129 -247 -257 -5 -16 -8 -16 -40 -3 -20
8 -61 15 -93 15 -144 0 -265 -117 -267 -257 0 -44 -3 -52 -16 -47 -98 40 -210
-33 -210 -137 0 -33 -2 -36 -25 -31 -35 6 -111 -24 -135 -55 -11 -14 -24 -42
-30 -63 -8 -30 -18 -41 -51 -55 -54 -25 -87 -70 -101 -138 -10 -47 -16 -57
-37 -62 -142 -35 -179 -257 -59 -349 47 -35 115 -50 164 -37 54 15 54 15 54
-27 0 -55 39 -122 86 -150 31 -18 51 -22 95 -19 53 3 57 1 72 -26 10 -16 17
-50 17 -76 0 -103 53 -191 142 -235 81 -40 188 -34 260 16 34 24 35 24 48 -16
53 -162 252 -230 402 -137 l47 30 11 -33 c24 -72 117 -135 201 -136 63 0 139
40 175 91 22 32 29 55 32 105 2 35 5 64 6 64 0 0 23 -11 50 -25 69 -35 162
-35 232 0 52 26 78 49 108 96 l17 27 -63 -5 c-134 -11 -260 39 -355 141 -33
34 -65 76 -71 92 l-12 29 -93 0 c-76 0 -100 4 -139 24 -102 50 -176 155 -186
265 -3 41 -14 74 -33 105 -56 90 -48 190 22 266 23 24 60 51 83 60 33 13 47
25 59 54 24 53 92 118 146 138 25 9 47 17 48 18 2 1 -4 26 -13 55 -41 140 -55
245 -61 462 l-6 216 -43 11 c-56 14 -139 13 -191 -4z"/>
</g>
</svg>
