<?xml version="1.0" standalone="no"?>
<!DOCTYPE svg PUBLIC "-//W3C//DTD SVG 20010904//EN"
 "http://www.w3.org/TR/2001/REC-SVG-20010904/DTD/svg10.dtd">
<svg version="1.0" xmlns="http://www.w3.org/2000/svg"
 width="5000.000000pt" height="5000.000000pt" viewBox="0 0 5000.000000 5000.000000"
 preserveAspectRatio="xMidYMid meet">

<g transform="translate(0.000000,5000.000000) scale(0.100000,-0.100000)"
fill="#000000" stroke="none">
<path d="M24585 44643 c-145 -185 -339 -503 -485 -798 -626 -1264 -658 -2550
-94 -3677 169 -338 340 -593 634 -948 167 -201 293 -368 393 -521 747 -1136
837 -2338 261 -3499 -162 -327 -382 -652 -600 -890 l-59 -64 100 68 c481 330
1039 852 1407 1316 507 640 798 1292 868 1947 19 168 8 554 -19 712 -71 411
-221 796 -458 1176 -220 351 -546 841 -957 1440 -446 650 -606 901 -741 1159
-156 299 -246 576 -292 906 -25 176 -24 679 0 950 18 195 84 744 92 768 8 24
-5 11 -50 -45z"/>
<path d="M18703 44050 c-220 -659 -306 -1410 -237 -2070 126 -1225 745 -2222
1817 -2926 70 -46 184 -122 255 -168 434 -285 820 -642 1099 -1016 641 -858
811 -1919 487 -3047 -47 -167 -137 -409 -191 -516 -19 -38 -29 -66 -24 -62 19
11 205 266 308 420 479 721 790 1428 927 2106 61 304 70 400 70 734 0 261 -3
319 -22 444 -104 664 -407 1225 -919 1704 -191 178 -893 750 -1598 1302 -929
726 -1201 1005 -1436 1470 -176 350 -304 790 -424 1465 -64 359 -52 342 -112
160z"/>
<path d="M31793 43811 c-620 -416 -1153 -971 -1508 -1571 -535 -905 -674
-1898 -414 -2960 22 -91 87 -307 144 -480 120 -365 151 -479 199 -720 208
-1050 11 -1990 -581 -2773 -324 -428 -759 -799 -1253 -1069 -69 -37 -121 -68
-117 -68 20 0 262 65 409 110 875 270 1634 672 2198 1167 505 443 853 995 989
1574 82 345 97 758 41 1141 -41 281 -185 945 -411 1893 -243 1021 -292 1299
-292 1670 -1 284 26 469 109 750 96 325 298 770 588 1299 42 76 76 140 76 142
0 12 -31 -7 -177 -105z"/>
<path d="M12200 40114 c0 -130 22 -372 51 -564 170 -1119 661 -2072 1394
-2701 529 -455 1160 -749 1945 -909 381 -77 718 -178 1005 -300 1241 -529
1969 -1547 2106 -2945 12 -125 16 -554 6 -615 -11 -62 42 110 88 285 172 659
251 1398 215 1995 -51 823 -277 1479 -692 2003 -96 121 -289 315 -408 411
-211 169 -526 353 -785 459 -250 103 -902 318 -1810 598 -652 201 -912 287
-1135 376 -796 316 -1172 682 -1847 1798 l-133 219 0 -110z"/>
<path d="M38605 37283 c-609 -51 -1064 -169 -1488 -386 -271 -138 -490 -298
-707 -516 -280 -280 -507 -632 -657 -1016 -105 -268 -318 -938 -580 -1825
-237 -804 -315 -1041 -435 -1320 -276 -644 -684 -1050 -1673 -1665 -104 -65
-203 -126 -220 -137 l-30 -20 145 7 c765 33 1620 287 2252 668 293 177 504
342 749 586 192 192 331 359 462 558 320 483 508 962 642 1638 81 406 163 693
281 983 458 1127 1331 1852 2519 2091 289 59 450 74 763 75 l284 1 -59 18
c-371 114 -920 213 -1398 252 -167 13 -723 19 -850 8z"/>
<path d="M24530 33553 c-485 -25 -892 -75 -1335 -164 -2121 -422 -4024 -1620
-5329 -3354 -936 -1244 -1522 -2692 -1711 -4227 -42 -341 -56 -557 -62 -948
-9 -601 25 -1070 118 -1625 274 -1635 1011 -3167 2125 -4415 914 -1024 2066
-1828 3344 -2335 825 -327 1670 -520 2615 -597 213 -17 1085 -17 1290 0 951
81 1772 267 2585 587 1824 717 3359 2018 4367 3700 1040 1734 1450 3779 1163
5795 -243 1706 -968 3279 -2116 4590 -152 174 -509 536 -694 704 -617 561
-1346 1054 -2085 1412 -1076 520 -2183 805 -3399 874 -158 9 -730 11 -876 3z"/>
<path d="M40823 32165 c-672 -81 -1233 -356 -1723 -847 -204 -204 -600 -694
-1350 -1673 -482 -629 -621 -797 -840 -1015 -162 -163 -263 -247 -425 -355
-385 -257 -901 -430 -1765 -590 -113 -21 -209 -42 -214 -46 -18 -15 354 -124
612 -179 987 -209 1952 -131 2752 222 489 215 951 556 1313 968 196 223 323
396 517 705 261 414 476 686 768 966 886 854 2035 1137 3297 812 170 -43 395
-120 530 -180 55 -24 107 -47 115 -50 28 -10 -224 173 -375 274 -281 187 -498
311 -817 468 -547 270 -1082 440 -1611 511 -157 21 -637 27 -784 9z"/>
<path d="M11745 31064 c-358 -36 -846 -142 -2230 -488 -640 -159 -913 -220
-1145 -255 -727 -109 -1237 4 -2197 488 -120 61 -269 137 -330 170 -62 33
-113 58 -113 55 0 -12 150 -233 230 -339 541 -720 1248 -1281 1985 -1575 311
-124 619 -203 960 -247 199 -25 672 -25 875 0 415 52 626 106 1255 320 1336
456 2557 270 3515 -534 146 -123 410 -392 522 -532 164 -206 305 -417 412
-617 25 -47 46 -80 46 -74 0 25 -103 371 -165 554 -306 896 -756 1664 -1285
2190 -488 486 -1035 769 -1672 866 -98 15 -565 28 -663 18z"/>
<path d="M41334 26650 c-475 -32 -962 -200 -1416 -487 -318 -200 -918 -610
-1648 -1124 -891 -627 -1247 -812 -1745 -904 -197 -36 -335 -46 -610 -46 -320
0 -674 26 -1099 80 -78 10 -142 18 -144 16 -5 -4 230 -168 353 -245 623 -390
1317 -640 2015 -727 181 -22 687 -25 850 -5 850 105 1535 422 2265 1047 733
627 1414 952 2180 1040 150 17 484 20 636 5 297 -30 601 -102 893 -211 408
-154 847 -415 1175 -699 46 -40 80 -67 76 -59 -5 8 -44 63 -88 123 -315 436
-778 925 -1187 1256 -720 582 -1419 889 -2140 940 -159 11 -200 11 -366 0z"/>
<path d="M11390 25734 c-445 -42 -850 -171 -1255 -402 -212 -121 -800 -517
-1637 -1103 -604 -423 -820 -566 -1042 -690 -337 -189 -649 -297 -996 -344
-162 -22 -565 -30 -795 -16 -220 14 -522 43 -749 72 -87 11 -160 18 -162 16
-5 -5 173 -130 311 -219 571 -368 1278 -638 1915 -732 309 -45 716 -54 995
-22 581 67 1121 259 1632 579 222 139 399 272 643 481 1060 911 2167 1227
3299 941 562 -142 1150 -452 1581 -834 83 -74 83 -72 -9 54 -392 541 -930
1088 -1426 1450 -576 420 -1117 658 -1700 746 -126 20 -493 33 -605 23z"/>
<path d="M12665 22324 c-636 -62 -1103 -247 -1575 -622 -305 -243 -636 -635
-1620 -1922 -314 -411 -498 -640 -647 -810 -556 -632 -1045 -874 -2233 -1110
-162 -32 -313 -61 -335 -65 l-40 -7 50 -19 c99 -39 423 -128 590 -162 1185
-246 2282 -93 3160 440 277 168 485 332 726 572 244 244 414 455 599 744 291
453 390 593 559 791 357 415 726 709 1156 921 342 169 632 258 1015 312 181
26 699 25 890 0 370 -50 751 -151 1060 -283 143 -61 141 -58 -65 90 -854 613
-1803 1011 -2665 1116 -87 11 -553 21 -625 14z"/>
<path d="M40025 21199 c-313 -24 -802 -129 -2030 -435 -1230 -308 -1398 -339
-1825 -338 -229 0 -282 3 -394 22 -432 75 -880 251 -1593 626 -101 53 -183 93
-183 89 0 -14 190 -289 272 -394 283 -363 612 -691 952 -949 926 -703 1959
-963 3077 -774 267 45 515 114 939 262 390 137 768 220 1150 253 192 17 596 6
772 -20 684 -101 1274 -388 1793 -871 318 -296 597 -655 787 -1015 63 -119 63
-117 7 90 -149 547 -413 1169 -700 1651 -515 862 -1148 1422 -1886 1669 -351
118 -743 164 -1138 134z"/>
<path d="M15770 17959 c-917 -62 -1640 -345 -2177 -853 -267 -251 -510 -610
-673 -991 -108 -253 -325 -932 -640 -2000 -155 -526 -279 -909 -359 -1110
-266 -665 -617 -1055 -1436 -1595 -105 -69 -268 -172 -362 -230 -95 -58 -170
-106 -169 -108 7 -6 345 20 496 39 557 69 1136 241 1610 479 633 317 1129 747
1495 1295 323 485 515 973 645 1640 72 369 155 665 267 950 388 988 1100 1678
2071 2005 403 136 814 202 1262 203 l235 1 -60 18 c-256 78 -728 173 -1075
217 -315 40 -853 59 -1130 40z"/>
<path d="M31254 16973 c14 -316 64 -655 146 -988 369 -1506 1296 -2541 2679
-2989 184 -60 358 -104 656 -166 810 -170 1454 -481 1954 -943 533 -492 886
-1163 1020 -1937 44 -254 55 -395 56 -689 l0 -283 23 73 c103 329 206 851 252
1289 27 248 38 757 21 980 -58 786 -261 1381 -648 1899 -106 141 -359 397
-498 502 -236 180 -480 318 -760 431 -240 97 -956 333 -1800 593 -868 267
-1122 357 -1410 498 -278 137 -461 264 -674 472 -263 256 -473 534 -790 1045
-70 113 -149 242 -175 288 -26 45 -50 82 -53 82 -3 0 -3 -71 1 -157z"/>
<path d="M28243 15735 c-179 -505 -283 -1120 -283 -1675 0 -852 218 -1597 657
-2244 147 -217 271 -365 477 -571 259 -259 477 -431 826 -655 383 -245 647
-456 910 -726 535 -551 842 -1169 947 -1905 22 -156 25 -667 5 -829 -34 -274
-95 -556 -174 -800 -45 -140 -124 -343 -163 -421 -15 -28 -25 -53 -23 -54 6
-6 211 274 315 430 542 813 869 1619 974 2400 29 212 32 625 6 816 -88 658
-361 1203 -842 1684 -200 200 -705 618 -1570 1297 -946 742 -1159 941 -1405
1311 -274 411 -432 913 -608 1927 l-18 104 -31 -89z"/>
<path d="M21684 15724 c-477 -299 -980 -765 -1328 -1229 -578 -771 -854 -1641
-805 -2540 24 -446 87 -755 264 -1296 141 -430 200 -668 244 -980 127 -910
-69 -1747 -570 -2444 -333 -463 -821 -887 -1323 -1151 -67 -35 -116 -64 -111
-64 20 0 285 72 455 125 750 231 1478 602 2000 1020 681 544 1083 1197 1195
1942 39 256 41 519 9 813 -26 235 -178 958 -380 1805 -169 708 -192 808 -239
1040 -209 1035 -110 1536 543 2755 63 118 122 225 130 238 8 12 12 22 10 22
-3 0 -45 -25 -94 -56z"/>
<path d="M25120 14673 c-414 -562 -733 -1272 -870 -1942 -62 -303 -75 -442
-74 -806 0 -361 8 -459 65 -740 134 -667 435 -1265 942 -1874 439 -526 692
-950 865 -1452 272 -787 239 -1599 -98 -2390 -149 -349 -361 -696 -595 -974
-156 -185 -150 -175 -75 -125 399 269 926 741 1264 1135 1086 1264 1327 2542
707 3750 -145 282 -460 765 -1263 1939 -653 954 -817 1303 -890 1901 -37 311
0 989 87 1575 8 52 13 96 11 98 -2 1 -36 -41 -76 -95z"/>
</g>
</svg>
